# 3ds Max Wavefront OBJ Exporter v0.99 - (c)2007 guruware
# File Created: 28.04.2025 02:03:30

#
# object Sphere001
#

v  -0.0463 50.0000 -0.4164
v  -0.0463 48.2963 -13.3574
v  -3.3956 48.2963 -12.9164
v  -6.5167 48.2963 -11.6236
v  -9.1969 48.2963 -9.5671
v  -11.2535 48.2963 -6.8869
v  -12.5463 48.2963 -3.7658
v  -12.9872 48.2963 -0.4164
v  -12.5463 48.2963 2.9329
v  -11.2535 48.2963 6.0540
v  -9.1969 48.2963 8.7342
v  -6.5167 48.2963 10.7908
v  -3.3956 48.2963 12.0836
v  -0.0463 48.2963 12.5245
v  3.3031 48.2963 12.0836
v  6.4242 48.2963 10.7908
v  9.1044 48.2963 8.7342
v  11.1609 48.2963 6.0541
v  12.4537 48.2963 2.9330
v  12.8947 48.2963 -0.4164
v  12.4537 48.2963 -3.7658
v  11.1609 48.2963 -6.8869
v  9.1044 48.2963 -9.5670
v  6.4242 48.2963 -11.6236
v  3.3031 48.2963 -12.9164
v  -6.5167 43.3013 -24.5646
v  -0.0463 43.3013 -25.4164
v  -12.5463 43.3013 -22.0671
v  -17.7239 43.3013 -18.0941
v  -21.6969 43.3013 -12.9164
v  -24.1944 43.3013 -6.8869
v  -25.0463 43.3013 -0.4164
v  -24.1944 43.3013 6.0540
v  -21.6969 43.3013 12.0836
v  -17.7239 43.3013 17.2612
v  -12.5463 43.3013 21.2342
v  -6.5167 43.3013 23.7317
v  -0.0463 43.3013 24.5836
v  6.4242 43.3013 23.7317
v  12.4537 43.3013 21.2342
v  17.6314 43.3013 17.2613
v  21.6044 43.3013 12.0836
v  24.1019 43.3013 6.0541
v  24.9537 43.3013 -0.4164
v  24.1019 43.3013 -6.8869
v  21.6044 43.3013 -12.9164
v  17.6314 43.3013 -18.0941
v  12.4538 43.3013 -22.0670
v  6.4242 43.3013 -24.5646
v  -9.1969 35.3553 -34.5671
v  -0.0463 35.3553 -35.7718
v  -17.7239 35.3553 -31.0350
v  -25.0463 35.3553 -25.4164
v  -30.6649 35.3553 -18.0941
v  -34.1969 35.3553 -9.5671
v  -35.4016 35.3553 -0.4164
v  -34.1969 35.3553 8.7342
v  -30.6649 35.3553 17.2612
v  -25.0463 35.3553 24.5836
v  -17.7239 35.3553 30.2022
v  -9.1969 35.3553 33.7342
v  -0.0463 35.3553 34.9389
v  9.1044 35.3553 33.7342
v  17.6314 35.3553 30.2022
v  24.9537 35.3553 24.5836
v  30.5723 35.3553 17.2613
v  34.1044 35.3553 8.7342
v  35.3091 35.3553 -0.4164
v  34.1044 35.3553 -9.5670
v  30.5724 35.3553 -18.0941
v  24.9538 35.3553 -25.4164
v  17.6314 35.3553 -31.0350
v  9.1044 35.3553 -34.5671
v  -11.2535 25.0000 -42.2422
v  -0.0463 25.0000 -43.7177
v  -21.6969 25.0000 -37.9164
v  -30.6649 25.0000 -31.0350
v  -37.5463 25.0000 -22.0671
v  -41.8721 25.0000 -11.6236
v  -43.3475 25.0000 -0.4164
v  -41.8721 25.0000 10.7908
v  -37.5463 25.0000 21.2342
v  -30.6649 25.0000 30.2022
v  -21.6969 25.0000 37.0836
v  -11.2535 25.0000 41.4094
v  -0.0463 25.0000 42.8848
v  11.1609 25.0000 41.4094
v  21.6043 25.0000 37.0836
v  30.5723 25.0000 30.2022
v  37.4537 25.0000 21.2342
v  41.7795 25.0000 10.7908
v  43.2550 25.0000 -0.4164
v  41.7796 25.0000 -11.6236
v  37.4538 25.0000 -22.0670
v  30.5724 25.0000 -31.0350
v  21.6044 25.0000 -37.9164
v  11.1610 25.0000 -42.2422
v  -12.5463 12.9410 -47.0671
v  -0.0463 12.9410 -48.7127
v  -24.1944 12.9410 -42.2422
v  -34.1969 12.9410 -34.5671
v  -41.8721 12.9410 -24.5646
v  -46.6969 12.9410 -12.9164
v  -48.3426 12.9410 -0.4164
v  -46.6969 12.9410 12.0836
v  -41.8721 12.9410 23.7317
v  -34.1969 12.9410 33.7342
v  -24.1944 12.9410 41.4094
v  -12.5463 12.9410 46.2342
v  -0.0463 12.9410 47.8799
v  12.4537 12.9410 46.2342
v  24.1019 12.9410 41.4094
v  34.1044 12.9410 33.7342
v  41.7795 12.9410 23.7318
v  46.6044 12.9410 12.0836
v  48.2500 12.9410 -0.4164
v  46.6044 12.9410 -12.9164
v  41.7796 12.9410 -24.5645
v  34.1044 12.9410 -34.5670
v  24.1019 12.9410 -42.2422
v  12.4538 12.9410 -47.0670
v  -12.9872 0.0000 -48.7127
v  -0.0463 0.0000 -50.4164
v  -25.0463 0.0000 -43.7177
v  -35.4016 0.0000 -35.7718
v  -43.3475 0.0000 -25.4164
v  -48.3426 0.0000 -13.3574
v  -50.0463 0.0000 -0.4164
v  -48.3426 0.0000 12.5245
v  -43.3475 0.0000 24.5836
v  -35.4016 0.0000 34.9389
v  -25.0463 0.0000 42.8848
v  -12.9872 0.0000 47.8799
v  -0.0463 0.0000 49.5836
v  12.8947 0.0000 47.8799
v  24.9537 0.0000 42.8849
v  35.3091 0.0000 34.9389
v  43.2550 0.0000 24.5836
v  48.2500 0.0000 12.5246
v  49.9537 0.0000 -0.4164
v  48.2500 0.0000 -13.3573
v  43.2550 0.0000 -25.4164
v  35.3091 0.0000 -35.7717
v  24.9538 0.0000 -43.7177
v  12.8947 0.0000 -48.7127
v  -12.5463 -12.9409 -47.0671
v  -0.0463 -12.9409 -48.7127
v  -24.1944 -12.9409 -42.2422
v  -34.1969 -12.9409 -34.5671
v  -41.8721 -12.9409 -24.5646
v  -46.6969 -12.9409 -12.9164
v  -48.3426 -12.9409 -0.4164
v  -46.6969 -12.9409 12.0836
v  -41.8721 -12.9409 23.7317
v  -34.1969 -12.9409 33.7342
v  -24.1944 -12.9409 41.4094
v  -12.5463 -12.9409 46.2342
v  -0.0463 -12.9409 47.8799
v  12.4537 -12.9409 46.2342
v  24.1019 -12.9409 41.4094
v  34.1044 -12.9409 33.7342
v  41.7795 -12.9409 23.7318
v  46.6044 -12.9409 12.0836
v  48.2500 -12.9409 -0.4164
v  46.6044 -12.9409 -12.9164
v  41.7796 -12.9409 -24.5645
v  34.1044 -12.9409 -34.5670
v  24.1019 -12.9409 -42.2422
v  12.4538 -12.9409 -47.0671
v  -11.2535 -25.0000 -42.2422
v  -0.0463 -25.0000 -43.7177
v  -21.6969 -25.0000 -37.9164
v  -30.6649 -25.0000 -31.0350
v  -37.5463 -25.0000 -22.0671
v  -41.8721 -25.0000 -11.6236
v  -43.3475 -25.0000 -0.4164
v  -41.8721 -25.0000 10.7908
v  -37.5463 -25.0000 21.2342
v  -30.6649 -25.0000 30.2022
v  -21.6969 -25.0000 37.0836
v  -11.2535 -25.0000 41.4094
v  -0.0463 -25.0000 42.8849
v  11.1609 -25.0000 41.4094
v  21.6044 -25.0000 37.0836
v  30.5723 -25.0000 30.2022
v  37.4537 -25.0000 21.2342
v  41.7795 -25.0000 10.7908
v  43.2550 -25.0000 -0.4164
v  41.7796 -25.0000 -11.6236
v  37.4538 -25.0000 -22.0670
v  30.5724 -25.0000 -31.0350
v  21.6044 -25.0000 -37.9164
v  11.1610 -25.0000 -42.2422
v  -9.1969 -35.3553 -34.5671
v  -0.0463 -35.3553 -35.7718
v  -17.7239 -35.3553 -31.0351
v  -25.0463 -35.3553 -25.4164
v  -30.6649 -35.3553 -18.0941
v  -34.1969 -35.3553 -9.5671
v  -35.4016 -35.3553 -0.4164
v  -34.1969 -35.3553 8.7342
v  -30.6649 -35.3553 17.2612
v  -25.0463 -35.3553 24.5836
v  -17.7239 -35.3553 30.2022
v  -9.1969 -35.3553 33.7342
v  -0.0463 -35.3553 34.9389
v  9.1044 -35.3553 33.7342
v  17.6314 -35.3553 30.2022
v  24.9537 -35.3553 24.5836
v  30.5724 -35.3553 17.2613
v  34.1044 -35.3553 8.7342
v  35.3091 -35.3553 -0.4164
v  34.1044 -35.3553 -9.5670
v  30.5724 -35.3553 -18.0941
v  24.9538 -35.3553 -25.4164
v  17.6314 -35.3553 -31.0350
v  9.1044 -35.3553 -34.5671
v  -6.5167 -43.3013 -24.5646
v  -0.0463 -43.3013 -25.4164
v  -12.5463 -43.3013 -22.0671
v  -17.7239 -43.3013 -18.0941
v  -21.6969 -43.3013 -12.9164
v  -24.1944 -43.3013 -6.8869
v  -25.0463 -43.3013 -0.4164
v  -24.1944 -43.3013 6.0540
v  -21.6969 -43.3013 12.0836
v  -17.7239 -43.3013 17.2612
v  -12.5463 -43.3013 21.2342
v  -6.5168 -43.3013 23.7317
v  -0.0463 -43.3013 24.5836
v  6.4242 -43.3013 23.7317
v  12.4537 -43.3013 21.2342
v  17.6314 -43.3013 17.2613
v  21.6044 -43.3013 12.0836
v  24.1019 -43.3013 6.0541
v  24.9537 -43.3013 -0.4164
v  24.1019 -43.3013 -6.8869
v  21.6044 -43.3013 -12.9164
v  17.6314 -43.3013 -18.0941
v  12.4538 -43.3013 -22.0671
v  6.4242 -43.3013 -24.5646
v  -3.3956 -48.2963 -12.9164
v  -0.0463 -48.2963 -13.3574
v  -6.5167 -48.2963 -11.6236
v  -9.1969 -48.2963 -9.5671
v  -11.2535 -48.2963 -6.8869
v  -12.5463 -48.2963 -3.7658
v  -12.9872 -48.2963 -0.4164
v  -12.5463 -48.2963 2.9329
v  -11.2535 -48.2963 6.0541
v  -9.1969 -48.2963 8.7342
v  -6.5168 -48.2963 10.7908
v  -3.3956 -48.2963 12.0836
v  -0.0463 -48.2963 12.5245
v  3.3031 -48.2963 12.0836
v  6.4242 -48.2963 10.7908
v  9.1044 -48.2963 8.7342
v  11.1609 -48.2963 6.0541
v  12.4537 -48.2963 2.9330
v  12.8947 -48.2963 -0.4164
v  12.4538 -48.2963 -3.7658
v  11.1609 -48.2963 -6.8869
v  9.1044 -48.2963 -9.5671
v  6.4242 -48.2963 -11.6236
v  3.3031 -48.2963 -12.9164
v  -0.0463 -50.0000 -0.4164
# 266 vertices

o Sphere001
g Sphere001
f 1 2 3 
f 1 3 4 
f 1 4 5 
f 1 5 6 
f 1 6 7 
f 1 7 8 
f 1 8 9 
f 1 9 10 
f 1 10 11 
f 1 11 12 
f 1 12 13 
f 1 13 14 
f 1 14 15 
f 1 15 16 
f 1 16 17 
f 1 17 18 
f 1 18 19 
f 1 19 20 
f 1 20 21 
f 1 21 22 
f 1 22 23 
f 1 23 24 
f 1 24 25 
f 1 25 2 
f 26 3 2 
f 2 27 26 
f 28 4 3 
f 3 26 28 
f 29 5 4 
f 4 28 29 
f 30 6 5 
f 5 29 30 
f 31 7 6 
f 6 30 31 
f 32 8 7 
f 7 31 32 
f 33 9 8 
f 8 32 33 
f 34 10 9 
f 9 33 34 
f 35 11 10 
f 10 34 35 
f 36 12 11 
f 11 35 36 
f 37 13 12 
f 12 36 37 
f 38 14 13 
f 13 37 38 
f 39 15 14 
f 14 38 39 
f 40 16 15 
f 15 39 40 
f 41 17 16 
f 16 40 41 
f 42 18 17 
f 17 41 42 
f 43 19 18 
f 18 42 43 
f 44 20 19 
f 19 43 44 
f 45 21 20 
f 20 44 45 
f 46 22 21 
f 21 45 46 
f 47 23 22 
f 22 46 47 
f 48 24 23 
f 23 47 48 
f 49 25 24 
f 24 48 49 
f 27 2 25 
f 25 49 27 
f 50 26 27 
f 27 51 50 
f 52 28 26 
f 26 50 52 
f 53 29 28 
f 28 52 53 
f 54 30 29 
f 29 53 54 
f 55 31 30 
f 30 54 55 
f 56 32 31 
f 31 55 56 
f 57 33 32 
f 32 56 57 
f 58 34 33 
f 33 57 58 
f 59 35 34 
f 34 58 59 
f 60 36 35 
f 35 59 60 
f 61 37 36 
f 36 60 61 
f 62 38 37 
f 37 61 62 
f 63 39 38 
f 38 62 63 
f 64 40 39 
f 39 63 64 
f 65 41 40 
f 40 64 65 
f 66 42 41 
f 41 65 66 
f 67 43 42 
f 42 66 67 
f 68 44 43 
f 43 67 68 
f 69 45 44 
f 44 68 69 
f 70 46 45 
f 45 69 70 
f 71 47 46 
f 46 70 71 
f 72 48 47 
f 47 71 72 
f 73 49 48 
f 48 72 73 
f 51 27 49 
f 49 73 51 
f 74 50 51 
f 51 75 74 
f 76 52 50 
f 50 74 76 
f 77 53 52 
f 52 76 77 
f 78 54 53 
f 53 77 78 
f 79 55 54 
f 54 78 79 
f 80 56 55 
f 55 79 80 
f 81 57 56 
f 56 80 81 
f 82 58 57 
f 57 81 82 
f 83 59 58 
f 58 82 83 
f 84 60 59 
f 59 83 84 
f 85 61 60 
f 60 84 85 
f 86 62 61 
f 61 85 86 
f 87 63 62 
f 62 86 87 
f 88 64 63 
f 63 87 88 
f 89 65 64 
f 64 88 89 
f 90 66 65 
f 65 89 90 
f 91 67 66 
f 66 90 91 
f 92 68 67 
f 67 91 92 
f 93 69 68 
f 68 92 93 
f 94 70 69 
f 69 93 94 
f 95 71 70 
f 70 94 95 
f 96 72 71 
f 71 95 96 
f 97 73 72 
f 72 96 97 
f 75 51 73 
f 73 97 75 
f 98 74 75 
f 75 99 98 
f 100 76 74 
f 74 98 100 
f 101 77 76 
f 76 100 101 
f 102 78 77 
f 77 101 102 
f 103 79 78 
f 78 102 103 
f 104 80 79 
f 79 103 104 
f 105 81 80 
f 80 104 105 
f 106 82 81 
f 81 105 106 
f 107 83 82 
f 82 106 107 
f 108 84 83 
f 83 107 108 
f 109 85 84 
f 84 108 109 
f 110 86 85 
f 85 109 110 
f 111 87 86 
f 86 110 111 
f 112 88 87 
f 87 111 112 
f 113 89 88 
f 88 112 113 
f 114 90 89 
f 89 113 114 
f 115 91 90 
f 90 114 115 
f 116 92 91 
f 91 115 116 
f 117 93 92 
f 92 116 117 
f 118 94 93 
f 93 117 118 
f 119 95 94 
f 94 118 119 
f 120 96 95 
f 95 119 120 
f 121 97 96 
f 96 120 121 
f 99 75 97 
f 97 121 99 
f 122 98 99 
f 99 123 122 
f 124 100 98 
f 98 122 124 
f 125 101 100 
f 100 124 125 
f 126 102 101 
f 101 125 126 
f 127 103 102 
f 102 126 127 
f 128 104 103 
f 103 127 128 
f 129 105 104 
f 104 128 129 
f 130 106 105 
f 105 129 130 
f 131 107 106 
f 106 130 131 
f 132 108 107 
f 107 131 132 
f 133 109 108 
f 108 132 133 
f 134 110 109 
f 109 133 134 
f 135 111 110 
f 110 134 135 
f 136 112 111 
f 111 135 136 
f 137 113 112 
f 112 136 137 
f 138 114 113 
f 113 137 138 
f 139 115 114 
f 114 138 139 
f 140 116 115 
f 115 139 140 
f 141 117 116 
f 116 140 141 
f 142 118 117 
f 117 141 142 
f 143 119 118 
f 118 142 143 
f 144 120 119 
f 119 143 144 
f 145 121 120 
f 120 144 145 
f 123 99 121 
f 121 145 123 
f 146 122 123 
f 123 147 146 
f 148 124 122 
f 122 146 148 
f 149 125 124 
f 124 148 149 
f 150 126 125 
f 125 149 150 
f 151 127 126 
f 126 150 151 
f 152 128 127 
f 127 151 152 
f 153 129 128 
f 128 152 153 
f 154 130 129 
f 129 153 154 
f 155 131 130 
f 130 154 155 
f 156 132 131 
f 131 155 156 
f 157 133 132 
f 132 156 157 
f 158 134 133 
f 133 157 158 
f 159 135 134 
f 134 158 159 
f 160 136 135 
f 135 159 160 
f 161 137 136 
f 136 160 161 
f 162 138 137 
f 137 161 162 
f 163 139 138 
f 138 162 163 
f 164 140 139 
f 139 163 164 
f 165 141 140 
f 140 164 165 
f 166 142 141 
f 141 165 166 
f 167 143 142 
f 142 166 167 
f 168 144 143 
f 143 167 168 
f 169 145 144 
f 144 168 169 
f 147 123 145 
f 145 169 147 
f 170 146 147 
f 147 171 170 
f 172 148 146 
f 146 170 172 
f 173 149 148 
f 148 172 173 
f 174 150 149 
f 149 173 174 
f 175 151 150 
f 150 174 175 
f 176 152 151 
f 151 175 176 
f 177 153 152 
f 152 176 177 
f 178 154 153 
f 153 177 178 
f 179 155 154 
f 154 178 179 
f 180 156 155 
f 155 179 180 
f 181 157 156 
f 156 180 181 
f 182 158 157 
f 157 181 182 
f 183 159 158 
f 158 182 183 
f 184 160 159 
f 159 183 184 
f 185 161 160 
f 160 184 185 
f 186 162 161 
f 161 185 186 
f 187 163 162 
f 162 186 187 
f 188 164 163 
f 163 187 188 
f 189 165 164 
f 164 188 189 
f 190 166 165 
f 165 189 190 
f 191 167 166 
f 166 190 191 
f 192 168 167 
f 167 191 192 
f 193 169 168 
f 168 192 193 
f 171 147 169 
f 169 193 171 
f 194 170 171 
f 171 195 194 
f 196 172 170 
f 170 194 196 
f 197 173 172 
f 172 196 197 
f 198 174 173 
f 173 197 198 
f 199 175 174 
f 174 198 199 
f 200 176 175 
f 175 199 200 
f 201 177 176 
f 176 200 201 
f 202 178 177 
f 177 201 202 
f 203 179 178 
f 178 202 203 
f 204 180 179 
f 179 203 204 
f 205 181 180 
f 180 204 205 
f 206 182 181 
f 181 205 206 
f 207 183 182 
f 182 206 207 
f 208 184 183 
f 183 207 208 
f 209 185 184 
f 184 208 209 
f 210 186 185 
f 185 209 210 
f 211 187 186 
f 186 210 211 
f 212 188 187 
f 187 211 212 
f 213 189 188 
f 188 212 213 
f 214 190 189 
f 189 213 214 
f 215 191 190 
f 190 214 215 
f 216 192 191 
f 191 215 216 
f 217 193 192 
f 192 216 217 
f 195 171 193 
f 193 217 195 
f 218 194 195 
f 195 219 218 
f 220 196 194 
f 194 218 220 
f 221 197 196 
f 196 220 221 
f 222 198 197 
f 197 221 222 
f 223 199 198 
f 198 222 223 
f 224 200 199 
f 199 223 224 
f 225 201 200 
f 200 224 225 
f 226 202 201 
f 201 225 226 
f 227 203 202 
f 202 226 227 
f 228 204 203 
f 203 227 228 
f 229 205 204 
f 204 228 229 
f 230 206 205 
f 205 229 230 
f 231 207 206 
f 206 230 231 
f 232 208 207 
f 207 231 232 
f 233 209 208 
f 208 232 233 
f 234 210 209 
f 209 233 234 
f 235 211 210 
f 210 234 235 
f 236 212 211 
f 211 235 236 
f 237 213 212 
f 212 236 237 
f 238 214 213 
f 213 237 238 
f 239 215 214 
f 214 238 239 
f 240 216 215 
f 215 239 240 
f 241 217 216 
f 216 240 241 
f 219 195 217 
f 217 241 219 
f 242 218 219 
f 219 243 242 
f 244 220 218 
f 218 242 244 
f 245 221 220 
f 220 244 245 
f 246 222 221 
f 221 245 246 
f 247 223 222 
f 222 246 247 
f 248 224 223 
f 223 247 248 
f 249 225 224 
f 224 248 249 
f 250 226 225 
f 225 249 250 
f 251 227 226 
f 226 250 251 
f 252 228 227 
f 227 251 252 
f 253 229 228 
f 228 252 253 
f 254 230 229 
f 229 253 254 
f 255 231 230 
f 230 254 255 
f 256 232 231 
f 231 255 256 
f 257 233 232 
f 232 256 257 
f 258 234 233 
f 233 257 258 
f 259 235 234 
f 234 258 259 
f 260 236 235 
f 235 259 260 
f 261 237 236 
f 236 260 261 
f 262 238 237 
f 237 261 262 
f 263 239 238 
f 238 262 263 
f 264 240 239 
f 239 263 264 
f 265 241 240 
f 240 264 265 
f 243 219 241 
f 241 265 243 
f 266 242 243 
f 266 244 242 
f 266 245 244 
f 266 246 245 
f 266 247 246 
f 266 248 247 
f 266 249 248 
f 266 250 249 
f 266 251 250 
f 266 252 251 
f 266 253 252 
f 266 254 253 
f 266 255 254 
f 266 256 255 
f 266 257 256 
f 266 258 257 
f 266 259 258 
f 266 260 259 
f 266 261 260 
f 266 262 261 
f 266 263 262 
f 266 264 263 
f 266 265 264 
f 266 243 265 
# 528 faces

