# 3ds Max Wavefront OBJ Exporter v0.99 - (c)2007 guruware
# File Created: 28.04.2025 03:55:47

#
# object Sphere001
#

v  -0.0463 50.0000 -0.4164
v  -0.0463 48.2963 -13.3574
v  -3.3956 48.2963 -12.9164
v  -6.5167 48.2963 -11.6236
v  -9.1969 48.2963 -9.5671
v  -11.2535 48.2963 -6.8869
v  -12.5463 48.2963 -3.7658
v  -12.9872 48.2963 -0.4164
v  -12.5463 48.2963 2.9329
v  -11.2535 48.2963 6.0540
v  -9.1969 48.2963 8.7342
v  -6.5167 48.2963 10.7908
v  -3.3956 48.2963 12.0836
v  -0.0463 48.2963 12.5245
v  3.3031 48.2963 12.0836
v  6.4242 48.2963 10.7908
v  9.1044 48.2963 8.7342
v  11.1609 48.2963 6.0541
v  12.4537 48.2963 2.9330
v  12.8947 48.2963 -0.4164
v  12.4537 48.2963 -3.7658
v  11.1609 48.2963 -6.8869
v  9.1044 48.2963 -9.5670
v  6.4242 48.2963 -11.6236
v  3.3031 48.2963 -12.9164
v  -6.5167 43.3013 -24.5646
v  -0.0463 43.3013 -25.4164
v  -12.5463 43.3013 -22.0671
v  -17.7239 43.3013 -18.0941
v  -21.6969 43.3013 -12.9164
v  -24.1944 43.3013 -6.8869
v  -25.0463 43.3013 -0.4164
v  -24.1944 43.3013 6.0540
v  -21.6969 43.3013 12.0836
v  -17.7239 43.3013 17.2612
v  -12.5463 43.3013 21.2342
v  -6.5167 43.3013 23.7317
v  -0.0463 43.3013 24.5836
v  6.4242 43.3013 23.7317
v  12.4537 43.3013 21.2342
v  17.6314 43.3013 17.2613
v  21.6044 43.3013 12.0836
v  24.1019 43.3013 6.0541
v  24.9537 43.3013 -0.4164
v  24.1019 43.3013 -6.8869
v  21.6044 43.3013 -12.9164
v  17.6314 43.3013 -18.0941
v  12.4538 43.3013 -22.0670
v  6.4242 43.3013 -24.5646
v  -9.1969 35.3553 -34.5671
v  -0.0463 35.3553 -35.7718
v  -17.7239 35.3553 -31.0350
v  -25.0463 35.3553 -25.4164
v  -30.6649 35.3553 -18.0941
v  -34.1969 35.3553 -9.5671
v  -35.4016 35.3553 -0.4164
v  -34.1969 35.3553 8.7342
v  -30.6649 35.3553 17.2612
v  -25.0463 35.3553 24.5836
v  -17.7239 35.3553 30.2022
v  -9.1969 35.3553 33.7342
v  -0.0463 35.3553 34.9389
v  9.1044 35.3553 33.7342
v  17.6314 35.3553 30.2022
v  24.9537 35.3553 24.5836
v  30.5723 35.3553 17.2613
v  34.1044 35.3553 8.7342
v  35.3091 35.3553 -0.4164
v  34.1044 35.3553 -9.5670
v  30.5724 35.3553 -18.0941
v  24.9538 35.3553 -25.4164
v  17.6314 35.3553 -31.0350
v  9.1044 35.3553 -34.5671
v  -11.2535 25.0000 -42.2422
v  -0.0463 25.0000 -43.7177
v  -21.6969 25.0000 -37.9164
v  -30.6649 25.0000 -31.0350
v  -37.5463 25.0000 -22.0671
v  -41.8721 25.0000 -11.6236
v  -43.3475 25.0000 -0.4164
v  -41.8721 25.0000 10.7908
v  -37.5463 25.0000 21.2342
v  -30.6649 25.0000 30.2022
v  -21.6969 25.0000 37.0836
v  -11.2535 25.0000 41.4094
v  -0.0463 25.0000 42.8848
v  11.1609 25.0000 41.4094
v  21.6043 25.0000 37.0836
v  30.5723 25.0000 30.2022
v  37.4537 25.0000 21.2342
v  41.7795 25.0000 10.7908
v  43.2550 25.0000 -0.4164
v  41.7796 25.0000 -11.6236
v  37.4538 25.0000 -22.0670
v  30.5724 25.0000 -31.0350
v  21.6044 25.0000 -37.9164
v  11.1610 25.0000 -42.2422
v  -12.5463 12.9410 -47.0671
v  -0.0463 12.9410 -48.7127
v  -24.1944 12.9410 -42.2422
v  -34.1969 12.9410 -34.5671
v  -41.8721 12.9410 -24.5646
v  -46.6969 12.9410 -12.9164
v  -48.3426 12.9410 -0.4164
v  -46.6969 12.9410 12.0836
v  -41.8721 12.9410 23.7317
v  -34.1969 12.9410 33.7342
v  -24.1944 12.9410 41.4094
v  -12.5463 12.9410 46.2342
v  -0.0463 12.9410 47.8799
v  12.4537 12.9410 46.2342
v  24.1019 12.9410 41.4094
v  34.1044 12.9410 33.7342
v  41.7795 12.9410 23.7318
v  46.6044 12.9410 12.0836
v  48.2500 12.9410 -0.4164
v  46.6044 12.9410 -12.9164
v  41.7796 12.9410 -24.5645
v  34.1044 12.9410 -34.5670
v  24.1019 12.9410 -42.2422
v  12.4538 12.9410 -47.0670
v  -12.9872 0.0000 -48.7127
v  -0.0463 0.0000 -50.4164
v  -25.0463 0.0000 -43.7177
v  -35.4016 0.0000 -35.7718
v  -43.3475 0.0000 -25.4164
v  -48.3426 0.0000 -13.3574
v  -50.0463 0.0000 -0.4164
v  -48.3426 0.0000 12.5245
v  -43.3475 0.0000 24.5836
v  -35.4016 0.0000 34.9389
v  -25.0463 0.0000 42.8848
v  -12.9872 0.0000 47.8799
v  -0.0463 0.0000 49.5836
v  12.8947 0.0000 47.8799
v  24.9537 0.0000 42.8849
v  35.3091 0.0000 34.9389
v  43.2550 0.0000 24.5836
v  48.2500 0.0000 12.5246
v  49.9537 0.0000 -0.4164
v  48.2500 0.0000 -13.3573
v  43.2550 0.0000 -25.4164
v  35.3091 0.0000 -35.7717
v  24.9538 0.0000 -43.7177
v  12.8947 0.0000 -48.7127
v  -12.5463 -12.9409 -47.0671
v  -0.0463 -12.9409 -48.7127
v  -24.1944 -12.9409 -42.2422
v  -34.1969 -12.9409 -34.5671
v  -41.8721 -12.9409 -24.5646
v  -46.6969 -12.9409 -12.9164
v  -48.3426 -12.9409 -0.4164
v  -46.6969 -12.9409 12.0836
v  -41.8721 -12.9409 23.7317
v  -34.1969 -12.9409 33.7342
v  -24.1944 -12.9409 41.4094
v  -12.5463 -12.9409 46.2342
v  -0.0463 -12.9409 47.8799
v  12.4537 -12.9409 46.2342
v  24.1019 -12.9409 41.4094
v  34.1044 -12.9409 33.7342
v  41.7795 -12.9409 23.7318
v  46.6044 -12.9409 12.0836
v  48.2500 -12.9409 -0.4164
v  46.6044 -12.9409 -12.9164
v  41.7796 -12.9409 -24.5645
v  34.1044 -12.9409 -34.5670
v  24.1019 -12.9409 -42.2422
v  12.4538 -12.9409 -47.0671
v  -11.2535 -25.0000 -42.2422
v  -0.0463 -25.0000 -43.7177
v  -21.6969 -25.0000 -37.9164
v  -30.6649 -25.0000 -31.0350
v  -37.5463 -25.0000 -22.0671
v  -41.8721 -25.0000 -11.6236
v  -43.3475 -25.0000 -0.4164
v  -41.8721 -25.0000 10.7908
v  -37.5463 -25.0000 21.2342
v  -30.6649 -25.0000 30.2022
v  -21.6969 -25.0000 37.0836
v  -11.2535 -25.0000 41.4094
v  -0.0463 -25.0000 42.8849
v  11.1609 -25.0000 41.4094
v  21.6044 -25.0000 37.0836
v  30.5723 -25.0000 30.2022
v  37.4537 -25.0000 21.2342
v  41.7795 -25.0000 10.7908
v  43.2550 -25.0000 -0.4164
v  41.7796 -25.0000 -11.6236
v  37.4538 -25.0000 -22.0670
v  30.5724 -25.0000 -31.0350
v  21.6044 -25.0000 -37.9164
v  11.1610 -25.0000 -42.2422
v  -9.1969 -35.3553 -34.5671
v  -0.0463 -35.3553 -35.7718
v  -17.7239 -35.3553 -31.0351
v  -25.0463 -35.3553 -25.4164
v  -30.6649 -35.3553 -18.0941
v  -34.1969 -35.3553 -9.5671
v  -35.4016 -35.3553 -0.4164
v  -34.1969 -35.3553 8.7342
v  -30.6649 -35.3553 17.2612
v  -25.0463 -35.3553 24.5836
v  -17.7239 -35.3553 30.2022
v  -9.1969 -35.3553 33.7342
v  -0.0463 -35.3553 34.9389
v  9.1044 -35.3553 33.7342
v  17.6314 -35.3553 30.2022
v  24.9537 -35.3553 24.5836
v  30.5724 -35.3553 17.2613
v  34.1044 -35.3553 8.7342
v  35.3091 -35.3553 -0.4164
v  34.1044 -35.3553 -9.5670
v  30.5724 -35.3553 -18.0941
v  24.9538 -35.3553 -25.4164
v  17.6314 -35.3553 -31.0350
v  9.1044 -35.3553 -34.5671
v  -6.5167 -43.3013 -24.5646
v  -0.0463 -43.3013 -25.4164
v  -12.5463 -43.3013 -22.0671
v  -17.7239 -43.3013 -18.0941
v  -21.6969 -43.3013 -12.9164
v  -24.1944 -43.3013 -6.8869
v  -25.0463 -43.3013 -0.4164
v  -24.1944 -43.3013 6.0540
v  -21.6969 -43.3013 12.0836
v  -17.7239 -43.3013 17.2612
v  -12.5463 -43.3013 21.2342
v  -6.5168 -43.3013 23.7317
v  -0.0463 -43.3013 24.5836
v  6.4242 -43.3013 23.7317
v  12.4537 -43.3013 21.2342
v  17.6314 -43.3013 17.2613
v  21.6044 -43.3013 12.0836
v  24.1019 -43.3013 6.0541
v  24.9537 -43.3013 -0.4164
v  24.1019 -43.3013 -6.8869
v  21.6044 -43.3013 -12.9164
v  17.6314 -43.3013 -18.0941
v  12.4538 -43.3013 -22.0671
v  6.4242 -43.3013 -24.5646
v  -3.3956 -48.2963 -12.9164
v  -0.0463 -48.2963 -13.3574
v  -6.5167 -48.2963 -11.6236
v  -9.1969 -48.2963 -9.5671
v  -11.2535 -48.2963 -6.8869
v  -12.5463 -48.2963 -3.7658
v  -12.9872 -48.2963 -0.4164
v  -12.5463 -48.2963 2.9329
v  -11.2535 -48.2963 6.0541
v  -9.1969 -48.2963 8.7342
v  -6.5168 -48.2963 10.7908
v  -3.3956 -48.2963 12.0836
v  -0.0463 -48.2963 12.5245
v  3.3031 -48.2963 12.0836
v  6.4242 -48.2963 10.7908
v  9.1044 -48.2963 8.7342
v  11.1609 -48.2963 6.0541
v  12.4537 -48.2963 2.9330
v  12.8947 -48.2963 -0.4164
v  12.4538 -48.2963 -3.7658
v  11.1609 -48.2963 -6.8869
v  9.1044 -48.2963 -9.5671
v  6.4242 -48.2963 -11.6236
v  3.3031 -48.2963 -12.9164
v  -0.0463 -50.0000 -0.4164
# 266 vertices

vn -0.0000 1.0000 -0.0000
vn 0.0000 0.9632 -0.2689
vn -0.0696 0.9632 -0.2597
vn -0.1345 0.9632 -0.2329
vn -0.1901 0.9632 -0.1901
vn -0.2329 0.9632 -0.1345
vn -0.2597 0.9632 -0.0696
vn -0.2689 0.9632 -0.0000
vn -0.2597 0.9632 0.0696
vn -0.2329 0.9632 0.1345
vn -0.1901 0.9632 0.1901
vn -0.1345 0.9632 0.2329
vn -0.0696 0.9632 0.2597
vn -0.0000 0.9632 0.2689
vn 0.0696 0.9632 0.2597
vn 0.1345 0.9632 0.2329
vn 0.1901 0.9632 0.1901
vn 0.2329 0.9632 0.1345
vn 0.2597 0.9632 0.0696
vn 0.2689 0.9632 0.0000
vn 0.2597 0.9632 -0.0696
vn 0.2329 0.9632 -0.1345
vn 0.1901 0.9632 -0.1901
vn 0.1345 0.9632 -0.2329
vn 0.0696 0.9632 -0.2597
vn -0.1315 0.8613 -0.4908
vn 0.0000 0.8613 -0.5081
vn -0.2540 0.8613 -0.4400
vn -0.3593 0.8613 -0.3593
vn -0.4400 0.8613 -0.2540
vn -0.4908 0.8613 -0.1315
vn -0.5081 0.8613 -0.0000
vn -0.4908 0.8613 0.1315
vn -0.4400 0.8613 0.2540
vn -0.3593 0.8613 0.3593
vn -0.2540 0.8613 0.4400
vn -0.1315 0.8613 0.4908
vn -0.0000 0.8613 0.5081
vn 0.1315 0.8613 0.4908
vn 0.2540 0.8613 0.4400
vn 0.3593 0.8613 0.3593
vn 0.4400 0.8613 0.2540
vn 0.4908 0.8613 0.1315
vn 0.5081 0.8613 0.0000
vn 0.4908 0.8613 -0.1315
vn 0.4400 0.8613 -0.2540
vn 0.3593 0.8613 -0.3593
vn 0.2540 0.8613 -0.4400
vn 0.1315 0.8613 -0.4908
vn -0.1844 0.7017 -0.6882
vn 0.0000 0.7017 -0.7125
vn -0.3562 0.7017 -0.6170
vn -0.5038 0.7017 -0.5038
vn -0.6170 0.7017 -0.3562
vn -0.6882 0.7017 -0.1844
vn -0.7125 0.7017 -0.0000
vn -0.6882 0.7017 0.1844
vn -0.6170 0.7017 0.3562
vn -0.5038 0.7017 0.5038
vn -0.3562 0.7017 0.6170
vn -0.1844 0.7017 0.6882
vn -0.0000 0.7017 0.7125
vn 0.1844 0.7017 0.6882
vn 0.3562 0.7017 0.6170
vn 0.5038 0.7017 0.5038
vn 0.6170 0.7017 0.3562
vn 0.6882 0.7017 0.1844
vn 0.7125 0.7017 0.0000
vn 0.6882 0.7017 -0.1844
vn 0.6170 0.7017 -0.3562
vn 0.5038 0.7017 -0.5038
vn 0.3562 0.7017 -0.6170
vn 0.1844 0.7017 -0.6882
vn -0.2248 0.4954 -0.8391
vn 0.0000 0.4954 -0.8687
vn -0.4343 0.4954 -0.7523
vn -0.6143 0.4954 -0.6143
vn -0.7523 0.4954 -0.4343
vn -0.8391 0.4954 -0.2248
vn -0.8687 0.4954 -0.0000
vn -0.8391 0.4954 0.2248
vn -0.7523 0.4954 0.4343
vn -0.6143 0.4954 0.6143
vn -0.4343 0.4954 0.7523
vn -0.2248 0.4954 0.8391
vn -0.0000 0.4954 0.8687
vn 0.2248 0.4954 0.8391
vn 0.4343 0.4954 0.7523
vn 0.6143 0.4954 0.6143
vn 0.7523 0.4954 0.4343
vn 0.8391 0.4954 0.2248
vn 0.8687 0.4954 0.0000
vn 0.8391 0.4954 -0.2248
vn 0.7523 0.4954 -0.4343
vn 0.6143 0.4954 -0.6143
vn 0.4343 0.4954 -0.7523
vn 0.2248 0.4954 -0.8391
vn -0.2502 0.2561 -0.9337
vn 0.0000 0.2561 -0.9666
vn -0.4833 0.2561 -0.8371
vn -0.6835 0.2561 -0.6835
vn -0.8371 0.2561 -0.4833
vn -0.9337 0.2561 -0.2502
vn -0.9666 0.2561 -0.0000
vn -0.9337 0.2561 0.2502
vn -0.8371 0.2561 0.4833
vn -0.6835 0.2561 0.6835
vn -0.4833 0.2561 0.8371
vn -0.2502 0.2561 0.9337
vn -0.0000 0.2561 0.9666
vn 0.2502 0.2561 0.9337
vn 0.4833 0.2561 0.8371
vn 0.6835 0.2561 0.6835
vn 0.8371 0.2561 0.4833
vn 0.9337 0.2561 0.2502
vn 0.9666 0.2561 0.0000
vn 0.9337 0.2561 -0.2502
vn 0.8371 0.2561 -0.4833
vn 0.6835 0.2561 -0.6835
vn 0.4833 0.2561 -0.8371
vn 0.2502 0.2561 -0.9337
vn -0.2588 0.0000 -0.9659
vn 0.0000 0.0000 -1.0000
vn -0.5000 0.0000 -0.8660
vn -0.7071 0.0000 -0.7071
vn -0.8660 0.0000 -0.5000
vn -0.9659 0.0000 -0.2588
vn -1.0000 0.0000 -0.0000
vn -0.9659 0.0000 0.2588
vn -0.8660 0.0000 0.5000
vn -0.7071 0.0000 0.7071
vn -0.5000 0.0000 0.8660
vn -0.2588 0.0000 0.9659
vn -0.0000 0.0000 1.0000
vn 0.2588 0.0000 0.9659
vn 0.5000 0.0000 0.8660
vn 0.7071 0.0000 0.7071
vn 0.8660 0.0000 0.5000
vn 0.9659 0.0000 0.2588
vn 1.0000 0.0000 0.0000
vn 0.9659 0.0000 -0.2588
vn 0.8660 0.0000 -0.5000
vn 0.7071 0.0000 -0.7071
vn 0.5000 0.0000 -0.8660
vn 0.2588 0.0000 -0.9659
vn -0.2502 -0.2561 -0.9337
vn 0.0000 -0.2561 -0.9666
vn -0.4833 -0.2561 -0.8371
vn -0.6835 -0.2561 -0.6835
vn -0.8371 -0.2561 -0.4833
vn -0.9337 -0.2561 -0.2502
vn -0.9666 -0.2561 -0.0000
vn -0.9337 -0.2561 0.2502
vn -0.8371 -0.2561 0.4833
vn -0.6835 -0.2561 0.6835
vn -0.4833 -0.2561 0.8371
vn -0.2502 -0.2561 0.9337
vn -0.0000 -0.2561 0.9666
vn 0.2502 -0.2561 0.9337
vn 0.4833 -0.2561 0.8371
vn 0.6835 -0.2561 0.6835
vn 0.8371 -0.2561 0.4833
vn 0.9337 -0.2561 0.2502
vn 0.9666 -0.2561 0.0000
vn 0.9337 -0.2561 -0.2502
vn 0.8371 -0.2561 -0.4833
vn 0.6835 -0.2561 -0.6835
vn 0.4833 -0.2561 -0.8371
vn 0.2502 -0.2561 -0.9337
vn -0.2248 -0.4954 -0.8391
vn 0.0000 -0.4954 -0.8687
vn -0.4343 -0.4954 -0.7523
vn -0.6143 -0.4954 -0.6143
vn -0.7523 -0.4954 -0.4343
vn -0.8391 -0.4954 -0.2248
vn -0.8687 -0.4954 -0.0000
vn -0.8391 -0.4954 0.2248
vn -0.7523 -0.4954 0.4343
vn -0.6143 -0.4954 0.6143
vn -0.4343 -0.4954 0.7523
vn -0.2248 -0.4954 0.8391
vn -0.0000 -0.4954 0.8687
vn 0.2248 -0.4954 0.8391
vn 0.4343 -0.4954 0.7523
vn 0.6143 -0.4954 0.6143
vn 0.7523 -0.4954 0.4343
vn 0.8391 -0.4954 0.2248
vn 0.8687 -0.4954 0.0000
vn 0.8391 -0.4954 -0.2248
vn 0.7523 -0.4954 -0.4343
vn 0.6143 -0.4954 -0.6143
vn 0.4343 -0.4954 -0.7523
vn 0.2248 -0.4954 -0.8391
vn -0.1844 -0.7017 -0.6882
vn 0.0000 -0.7017 -0.7125
vn -0.3562 -0.7017 -0.6170
vn -0.5038 -0.7017 -0.5038
vn -0.6170 -0.7017 -0.3562
vn -0.6882 -0.7017 -0.1844
vn -0.7125 -0.7017 -0.0000
vn -0.6882 -0.7017 0.1844
vn -0.6170 -0.7017 0.3562
vn -0.5038 -0.7017 0.5038
vn -0.3562 -0.7017 0.6170
vn -0.1844 -0.7017 0.6882
vn -0.0000 -0.7017 0.7125
vn 0.1844 -0.7017 0.6882
vn 0.3562 -0.7017 0.6170
vn 0.5038 -0.7017 0.5038
vn 0.6170 -0.7017 0.3562
vn 0.6882 -0.7017 0.1844
vn 0.7125 -0.7017 0.0000
vn 0.6882 -0.7017 -0.1844
vn 0.6170 -0.7017 -0.3562
vn 0.5038 -0.7017 -0.5038
vn 0.3562 -0.7017 -0.6170
vn 0.1844 -0.7017 -0.6882
vn -0.1315 -0.8613 -0.4908
vn 0.0000 -0.8613 -0.5081
vn -0.2540 -0.8613 -0.4400
vn -0.3593 -0.8613 -0.3593
vn -0.4400 -0.8613 -0.2540
vn -0.4908 -0.8613 -0.1315
vn -0.5081 -0.8613 -0.0000
vn -0.4908 -0.8613 0.1315
vn -0.4400 -0.8613 0.2540
vn -0.3593 -0.8613 0.3593
vn -0.2540 -0.8613 0.4400
vn -0.1315 -0.8613 0.4908
vn -0.0000 -0.8613 0.5081
vn 0.1315 -0.8613 0.4908
vn 0.2540 -0.8613 0.4400
vn 0.3593 -0.8613 0.3593
vn 0.4400 -0.8613 0.2540
vn 0.4908 -0.8613 0.1315
vn 0.5081 -0.8613 0.0000
vn 0.4908 -0.8613 -0.1315
vn 0.4400 -0.8613 -0.2540
vn 0.3593 -0.8613 -0.3593
vn 0.2540 -0.8613 -0.4400
vn 0.1315 -0.8613 -0.4908
vn -0.0696 -0.9632 -0.2597
vn 0.0000 -0.9632 -0.2689
vn -0.1345 -0.9632 -0.2329
vn -0.1901 -0.9632 -0.1901
vn -0.2329 -0.9632 -0.1345
vn -0.2597 -0.9632 -0.0696
vn -0.2689 -0.9632 -0.0000
vn -0.2597 -0.9632 0.0696
vn -0.2329 -0.9632 0.1345
vn -0.1901 -0.9632 0.1901
vn -0.1345 -0.9632 0.2329
vn -0.0696 -0.9632 0.2597
vn -0.0000 -0.9632 0.2689
vn 0.0696 -0.9632 0.2597
vn 0.1345 -0.9632 0.2329
vn 0.1901 -0.9632 0.1901
vn 0.2329 -0.9632 0.1345
vn 0.2597 -0.9632 0.0696
vn 0.2689 -0.9632 0.0000
vn 0.2597 -0.9632 -0.0696
vn 0.2329 -0.9632 -0.1345
vn 0.1901 -0.9632 -0.1901
vn 0.1345 -0.9632 -0.2329
vn 0.0696 -0.9632 -0.2597
vn 0.0000 -1.0000 0.0000
# 266 vertex normals

o Sphere001
g Sphere001
f 1//1 2//2 3//3 
f 1//1 3//3 4//4 
f 1//1 4//4 5//5 
f 1//1 5//5 6//6 
f 1//1 6//6 7//7 
f 1//1 7//7 8//8 
f 1//1 8//8 9//9 
f 1//1 9//9 10//10 
f 1//1 10//10 11//11 
f 1//1 11//11 12//12 
f 1//1 12//12 13//13 
f 1//1 13//13 14//14 
f 1//1 14//14 15//15 
f 1//1 15//15 16//16 
f 1//1 16//16 17//17 
f 1//1 17//17 18//18 
f 1//1 18//18 19//19 
f 1//1 19//19 20//20 
f 1//1 20//20 21//21 
f 1//1 21//21 22//22 
f 1//1 22//22 23//23 
f 1//1 23//23 24//24 
f 1//1 24//24 25//25 
f 1//1 25//25 2//2 
f 26//26 3//3 2//2 
f 2//2 27//27 26//26 
f 28//28 4//4 3//3 
f 3//3 26//26 28//28 
f 29//29 5//5 4//4 
f 4//4 28//28 29//29 
f 30//30 6//6 5//5 
f 5//5 29//29 30//30 
f 31//31 7//7 6//6 
f 6//6 30//30 31//31 
f 32//32 8//8 7//7 
f 7//7 31//31 32//32 
f 33//33 9//9 8//8 
f 8//8 32//32 33//33 
f 34//34 10//10 9//9 
f 9//9 33//33 34//34 
f 35//35 11//11 10//10 
f 10//10 34//34 35//35 
f 36//36 12//12 11//11 
f 11//11 35//35 36//36 
f 37//37 13//13 12//12 
f 12//12 36//36 37//37 
f 38//38 14//14 13//13 
f 13//13 37//37 38//38 
f 39//39 15//15 14//14 
f 14//14 38//38 39//39 
f 40//40 16//16 15//15 
f 15//15 39//39 40//40 
f 41//41 17//17 16//16 
f 16//16 40//40 41//41 
f 42//42 18//18 17//17 
f 17//17 41//41 42//42 
f 43//43 19//19 18//18 
f 18//18 42//42 43//43 
f 44//44 20//20 19//19 
f 19//19 43//43 44//44 
f 45//45 21//21 20//20 
f 20//20 44//44 45//45 
f 46//46 22//22 21//21 
f 21//21 45//45 46//46 
f 47//47 23//23 22//22 
f 22//22 46//46 47//47 
f 48//48 24//24 23//23 
f 23//23 47//47 48//48 
f 49//49 25//25 24//24 
f 24//24 48//48 49//49 
f 27//27 2//2 25//25 
f 25//25 49//49 27//27 
f 50//50 26//26 27//27 
f 27//27 51//51 50//50 
f 52//52 28//28 26//26 
f 26//26 50//50 52//52 
f 53//53 29//29 28//28 
f 28//28 52//52 53//53 
f 54//54 30//30 29//29 
f 29//29 53//53 54//54 
f 55//55 31//31 30//30 
f 30//30 54//54 55//55 
f 56//56 32//32 31//31 
f 31//31 55//55 56//56 
f 57//57 33//33 32//32 
f 32//32 56//56 57//57 
f 58//58 34//34 33//33 
f 33//33 57//57 58//58 
f 59//59 35//35 34//34 
f 34//34 58//58 59//59 
f 60//60 36//36 35//35 
f 35//35 59//59 60//60 
f 61//61 37//37 36//36 
f 36//36 60//60 61//61 
f 62//62 38//38 37//37 
f 37//37 61//61 62//62 
f 63//63 39//39 38//38 
f 38//38 62//62 63//63 
f 64//64 40//40 39//39 
f 39//39 63//63 64//64 
f 65//65 41//41 40//40 
f 40//40 64//64 65//65 
f 66//66 42//42 41//41 
f 41//41 65//65 66//66 
f 67//67 43//43 42//42 
f 42//42 66//66 67//67 
f 68//68 44//44 43//43 
f 43//43 67//67 68//68 
f 69//69 45//45 44//44 
f 44//44 68//68 69//69 
f 70//70 46//46 45//45 
f 45//45 69//69 70//70 
f 71//71 47//47 46//46 
f 46//46 70//70 71//71 
f 72//72 48//48 47//47 
f 47//47 71//71 72//72 
f 73//73 49//49 48//48 
f 48//48 72//72 73//73 
f 51//51 27//27 49//49 
f 49//49 73//73 51//51 
f 74//74 50//50 51//51 
f 51//51 75//75 74//74 
f 76//76 52//52 50//50 
f 50//50 74//74 76//76 
f 77//77 53//53 52//52 
f 52//52 76//76 77//77 
f 78//78 54//54 53//53 
f 53//53 77//77 78//78 
f 79//79 55//55 54//54 
f 54//54 78//78 79//79 
f 80//80 56//56 55//55 
f 55//55 79//79 80//80 
f 81//81 57//57 56//56 
f 56//56 80//80 81//81 
f 82//82 58//58 57//57 
f 57//57 81//81 82//82 
f 83//83 59//59 58//58 
f 58//58 82//82 83//83 
f 84//84 60//60 59//59 
f 59//59 83//83 84//84 
f 85//85 61//61 60//60 
f 60//60 84//84 85//85 
f 86//86 62//62 61//61 
f 61//61 85//85 86//86 
f 87//87 63//63 62//62 
f 62//62 86//86 87//87 
f 88//88 64//64 63//63 
f 63//63 87//87 88//88 
f 89//89 65//65 64//64 
f 64//64 88//88 89//89 
f 90//90 66//66 65//65 
f 65//65 89//89 90//90 
f 91//91 67//67 66//66 
f 66//66 90//90 91//91 
f 92//92 68//68 67//67 
f 67//67 91//91 92//92 
f 93//93 69//69 68//68 
f 68//68 92//92 93//93 
f 94//94 70//70 69//69 
f 69//69 93//93 94//94 
f 95//95 71//71 70//70 
f 70//70 94//94 95//95 
f 96//96 72//72 71//71 
f 71//71 95//95 96//96 
f 97//97 73//73 72//72 
f 72//72 96//96 97//97 
f 75//75 51//51 73//73 
f 73//73 97//97 75//75 
f 98//98 74//74 75//75 
f 75//75 99//99 98//98 
f 100//100 76//76 74//74 
f 74//74 98//98 100//100 
f 101//101 77//77 76//76 
f 76//76 100//100 101//101 
f 102//102 78//78 77//77 
f 77//77 101//101 102//102 
f 103//103 79//79 78//78 
f 78//78 102//102 103//103 
f 104//104 80//80 79//79 
f 79//79 103//103 104//104 
f 105//105 81//81 80//80 
f 80//80 104//104 105//105 
f 106//106 82//82 81//81 
f 81//81 105//105 106//106 
f 107//107 83//83 82//82 
f 82//82 106//106 107//107 
f 108//108 84//84 83//83 
f 83//83 107//107 108//108 
f 109//109 85//85 84//84 
f 84//84 108//108 109//109 
f 110//110 86//86 85//85 
f 85//85 109//109 110//110 
f 111//111 87//87 86//86 
f 86//86 110//110 111//111 
f 112//112 88//88 87//87 
f 87//87 111//111 112//112 
f 113//113 89//89 88//88 
f 88//88 112//112 113//113 
f 114//114 90//90 89//89 
f 89//89 113//113 114//114 
f 115//115 91//91 90//90 
f 90//90 114//114 115//115 
f 116//116 92//92 91//91 
f 91//91 115//115 116//116 
f 117//117 93//93 92//92 
f 92//92 116//116 117//117 
f 118//118 94//94 93//93 
f 93//93 117//117 118//118 
f 119//119 95//95 94//94 
f 94//94 118//118 119//119 
f 120//120 96//96 95//95 
f 95//95 119//119 120//120 
f 121//121 97//97 96//96 
f 96//96 120//120 121//121 
f 99//99 75//75 97//97 
f 97//97 121//121 99//99 
f 122//122 98//98 99//99 
f 99//99 123//123 122//122 
f 124//124 100//100 98//98 
f 98//98 122//122 124//124 
f 125//125 101//101 100//100 
f 100//100 124//124 125//125 
f 126//126 102//102 101//101 
f 101//101 125//125 126//126 
f 127//127 103//103 102//102 
f 102//102 126//126 127//127 
f 128//128 104//104 103//103 
f 103//103 127//127 128//128 
f 129//129 105//105 104//104 
f 104//104 128//128 129//129 
f 130//130 106//106 105//105 
f 105//105 129//129 130//130 
f 131//131 107//107 106//106 
f 106//106 130//130 131//131 
f 132//132 108//108 107//107 
f 107//107 131//131 132//132 
f 133//133 109//109 108//108 
f 108//108 132//132 133//133 
f 134//134 110//110 109//109 
f 109//109 133//133 134//134 
f 135//135 111//111 110//110 
f 110//110 134//134 135//135 
f 136//136 112//112 111//111 
f 111//111 135//135 136//136 
f 137//137 113//113 112//112 
f 112//112 136//136 137//137 
f 138//138 114//114 113//113 
f 113//113 137//137 138//138 
f 139//139 115//115 114//114 
f 114//114 138//138 139//139 
f 140//140 116//116 115//115 
f 115//115 139//139 140//140 
f 141//141 117//117 116//116 
f 116//116 140//140 141//141 
f 142//142 118//118 117//117 
f 117//117 141//141 142//142 
f 143//143 119//119 118//118 
f 118//118 142//142 143//143 
f 144//144 120//120 119//119 
f 119//119 143//143 144//144 
f 145//145 121//121 120//120 
f 120//120 144//144 145//145 
f 123//123 99//99 121//121 
f 121//121 145//145 123//123 
f 146//146 122//122 123//123 
f 123//123 147//147 146//146 
f 148//148 124//124 122//122 
f 122//122 146//146 148//148 
f 149//149 125//125 124//124 
f 124//124 148//148 149//149 
f 150//150 126//126 125//125 
f 125//125 149//149 150//150 
f 151//151 127//127 126//126 
f 126//126 150//150 151//151 
f 152//152 128//128 127//127 
f 127//127 151//151 152//152 
f 153//153 129//129 128//128 
f 128//128 152//152 153//153 
f 154//154 130//130 129//129 
f 129//129 153//153 154//154 
f 155//155 131//131 130//130 
f 130//130 154//154 155//155 
f 156//156 132//132 131//131 
f 131//131 155//155 156//156 
f 157//157 133//133 132//132 
f 132//132 156//156 157//157 
f 158//158 134//134 133//133 
f 133//133 157//157 158//158 
f 159//159 135//135 134//134 
f 134//134 158//158 159//159 
f 160//160 136//136 135//135 
f 135//135 159//159 160//160 
f 161//161 137//137 136//136 
f 136//136 160//160 161//161 
f 162//162 138//138 137//137 
f 137//137 161//161 162//162 
f 163//163 139//139 138//138 
f 138//138 162//162 163//163 
f 164//164 140//140 139//139 
f 139//139 163//163 164//164 
f 165//165 141//141 140//140 
f 140//140 164//164 165//165 
f 166//166 142//142 141//141 
f 141//141 165//165 166//166 
f 167//167 143//143 142//142 
f 142//142 166//166 167//167 
f 168//168 144//144 143//143 
f 143//143 167//167 168//168 
f 169//169 145//145 144//144 
f 144//144 168//168 169//169 
f 147//147 123//123 145//145 
f 145//145 169//169 147//147 
f 170//170 146//146 147//147 
f 147//147 171//171 170//170 
f 172//172 148//148 146//146 
f 146//146 170//170 172//172 
f 173//173 149//149 148//148 
f 148//148 172//172 173//173 
f 174//174 150//150 149//149 
f 149//149 173//173 174//174 
f 175//175 151//151 150//150 
f 150//150 174//174 175//175 
f 176//176 152//152 151//151 
f 151//151 175//175 176//176 
f 177//177 153//153 152//152 
f 152//152 176//176 177//177 
f 178//178 154//154 153//153 
f 153//153 177//177 178//178 
f 179//179 155//155 154//154 
f 154//154 178//178 179//179 
f 180//180 156//156 155//155 
f 155//155 179//179 180//180 
f 181//181 157//157 156//156 
f 156//156 180//180 181//181 
f 182//182 158//158 157//157 
f 157//157 181//181 182//182 
f 183//183 159//159 158//158 
f 158//158 182//182 183//183 
f 184//184 160//160 159//159 
f 159//159 183//183 184//184 
f 185//185 161//161 160//160 
f 160//160 184//184 185//185 
f 186//186 162//162 161//161 
f 161//161 185//185 186//186 
f 187//187 163//163 162//162 
f 162//162 186//186 187//187 
f 188//188 164//164 163//163 
f 163//163 187//187 188//188 
f 189//189 165//165 164//164 
f 164//164 188//188 189//189 
f 190//190 166//166 165//165 
f 165//165 189//189 190//190 
f 191//191 167//167 166//166 
f 166//166 190//190 191//191 
f 192//192 168//168 167//167 
f 167//167 191//191 192//192 
f 193//193 169//169 168//168 
f 168//168 192//192 193//193 
f 171//171 147//147 169//169 
f 169//169 193//193 171//171 
f 194//194 170//170 171//171 
f 171//171 195//195 194//194 
f 196//196 172//172 170//170 
f 170//170 194//194 196//196 
f 197//197 173//173 172//172 
f 172//172 196//196 197//197 
f 198//198 174//174 173//173 
f 173//173 197//197 198//198 
f 199//199 175//175 174//174 
f 174//174 198//198 199//199 
f 200//200 176//176 175//175 
f 175//175 199//199 200//200 
f 201//201 177//177 176//176 
f 176//176 200//200 201//201 
f 202//202 178//178 177//177 
f 177//177 201//201 202//202 
f 203//203 179//179 178//178 
f 178//178 202//202 203//203 
f 204//204 180//180 179//179 
f 179//179 203//203 204//204 
f 205//205 181//181 180//180 
f 180//180 204//204 205//205 
f 206//206 182//182 181//181 
f 181//181 205//205 206//206 
f 207//207 183//183 182//182 
f 182//182 206//206 207//207 
f 208//208 184//184 183//183 
f 183//183 207//207 208//208 
f 209//209 185//185 184//184 
f 184//184 208//208 209//209 
f 210//210 186//186 185//185 
f 185//185 209//209 210//210 
f 211//211 187//187 186//186 
f 186//186 210//210 211//211 
f 212//212 188//188 187//187 
f 187//187 211//211 212//212 
f 213//213 189//189 188//188 
f 188//188 212//212 213//213 
f 214//214 190//190 189//189 
f 189//189 213//213 214//214 
f 215//215 191//191 190//190 
f 190//190 214//214 215//215 
f 216//216 192//192 191//191 
f 191//191 215//215 216//216 
f 217//217 193//193 192//192 
f 192//192 216//216 217//217 
f 195//195 171//171 193//193 
f 193//193 217//217 195//195 
f 218//218 194//194 195//195 
f 195//195 219//219 218//218 
f 220//220 196//196 194//194 
f 194//194 218//218 220//220 
f 221//221 197//197 196//196 
f 196//196 220//220 221//221 
f 222//222 198//198 197//197 
f 197//197 221//221 222//222 
f 223//223 199//199 198//198 
f 198//198 222//222 223//223 
f 224//224 200//200 199//199 
f 199//199 223//223 224//224 
f 225//225 201//201 200//200 
f 200//200 224//224 225//225 
f 226//226 202//202 201//201 
f 201//201 225//225 226//226 
f 227//227 203//203 202//202 
f 202//202 226//226 227//227 
f 228//228 204//204 203//203 
f 203//203 227//227 228//228 
f 229//229 205//205 204//204 
f 204//204 228//228 229//229 
f 230//230 206//206 205//205 
f 205//205 229//229 230//230 
f 231//231 207//207 206//206 
f 206//206 230//230 231//231 
f 232//232 208//208 207//207 
f 207//207 231//231 232//232 
f 233//233 209//209 208//208 
f 208//208 232//232 233//233 
f 234//234 210//210 209//209 
f 209//209 233//233 234//234 
f 235//235 211//211 210//210 
f 210//210 234//234 235//235 
f 236//236 212//212 211//211 
f 211//211 235//235 236//236 
f 237//237 213//213 212//212 
f 212//212 236//236 237//237 
f 238//238 214//214 213//213 
f 213//213 237//237 238//238 
f 239//239 215//215 214//214 
f 214//214 238//238 239//239 
f 240//240 216//216 215//215 
f 215//215 239//239 240//240 
f 241//241 217//217 216//216 
f 216//216 240//240 241//241 
f 219//219 195//195 217//217 
f 217//217 241//241 219//219 
f 242//242 218//218 219//219 
f 219//219 243//243 242//242 
f 244//244 220//220 218//218 
f 218//218 242//242 244//244 
f 245//245 221//221 220//220 
f 220//220 244//244 245//245 
f 246//246 222//222 221//221 
f 221//221 245//245 246//246 
f 247//247 223//223 222//222 
f 222//222 246//246 247//247 
f 248//248 224//224 223//223 
f 223//223 247//247 248//248 
f 249//249 225//225 224//224 
f 224//224 248//248 249//249 
f 250//250 226//226 225//225 
f 225//225 249//249 250//250 
f 251//251 227//227 226//226 
f 226//226 250//250 251//251 
f 252//252 228//228 227//227 
f 227//227 251//251 252//252 
f 253//253 229//229 228//228 
f 228//228 252//252 253//253 
f 254//254 230//230 229//229 
f 229//229 253//253 254//254 
f 255//255 231//231 230//230 
f 230//230 254//254 255//255 
f 256//256 232//232 231//231 
f 231//231 255//255 256//256 
f 257//257 233//233 232//232 
f 232//232 256//256 257//257 
f 258//258 234//234 233//233 
f 233//233 257//257 258//258 
f 259//259 235//235 234//234 
f 234//234 258//258 259//259 
f 260//260 236//236 235//235 
f 235//235 259//259 260//260 
f 261//261 237//237 236//236 
f 236//236 260//260 261//261 
f 262//262 238//238 237//237 
f 237//237 261//261 262//262 
f 263//263 239//239 238//238 
f 238//238 262//262 263//263 
f 264//264 240//240 239//239 
f 239//239 263//263 264//264 
f 265//265 241//241 240//240 
f 240//240 264//264 265//265 
f 243//243 219//219 241//241 
f 241//241 265//265 243//243 
f 266//266 242//242 243//243 
f 266//266 244//244 242//242 
f 266//266 245//245 244//244 
f 266//266 246//246 245//245 
f 266//266 247//247 246//246 
f 266//266 248//248 247//247 
f 266//266 249//249 248//248 
f 266//266 250//250 249//249 
f 266//266 251//251 250//250 
f 266//266 252//252 251//251 
f 266//266 253//253 252//252 
f 266//266 254//254 253//253 
f 266//266 255//255 254//254 
f 266//266 256//256 255//255 
f 266//266 257//257 256//256 
f 266//266 258//258 257//257 
f 266//266 259//259 258//258 
f 266//266 260//260 259//259 
f 266//266 261//261 260//260 
f 266//266 262//262 261//261 
f 266//266 263//263 262//262 
f 266//266 264//264 263//263 
f 266//266 265//265 264//264 
f 266//266 243//243 265//265 
# 528 faces

